# xmcd
#
# Track frame offsets: 
#        150
#        22170
#        39073
#        56528
#        72520
#        88845
#        102833
#        114950
#        132478
#        149913
#        164120
#        180360
#
# Disc length: 2581 seconds
#
# Revision: 2
# Processed by: cddbd v1.4PL0 Copyright (c) Steve Scherf et al.
# Submitted via: ExactAudioCopy v0.95a1
#
DISCID=ae0a130c
DTITLE=The Nashville SuperPickers - Pickin' on the Eagles
DYEAR=1994
DGENRE=Bluegrass
TTITLE0=Hotel California
TTITLE1=Witchy Woman
TTITLE2=New Kid in Town
TTITLE3=Peaceful, Easy Feelin'
TTITLE4=Lyin' Eyes
TTITLE5=desperado
TTITLE6=Tequila sunrise
TTITLE7=Take It to the Limit
TTITLE8=HEartache Tonight
TTITLE9=Take it Easy
TTITLE10=I Can't tell you Why
TTITLE11=Seven Bridges Road
EXTD=
EXTT0=
EXTT1=
EXTT2=
EXTT3=
EXTT4=
EXTT5=
EXTT6=
EXTT7=
EXTT8=
EXTT9=
EXTT10=
EXTT11=
PLAYORDER=
